PathFileType	4	(X/Y/Z)	C:/Users/opensim2020/Desktop/walking_exp_matlab/subject06_walking13_straight_03.trc	
DataRate	CameraRate	NumFrames	NumMarkers	Units	OrigDataRate	OrigDataStartFrame	OrigNumFrames	
100.00	100.00	6	50	mm	100.00	2186	172	
Frame#	Time	LFHD			RFHD			LBHD			RBHD			C7			T10			CLAV			STRN			RBAK			LSHO			LUPA			LELB			LFRM			LWRA			LWRB			LFIN			RSHO			RUPA			RELB			RFRM			RWRA			RWRB			RFIN			LASI			RASI			LPSI			RPSI			LTHI			LKNE			LTIB			LANK			LHEE			LTOE			RTHI			RKNE			RTIB			RANK			RHEE			RTOE			*39			*40			*41			*42			*43			*44			*45			*46			*47			*48			*49			
		X1	Y1	Z1	X2	Y2	Z2	X3	Y3	Z3	X4	Y4	Z4	X5	Y5	Z5	X6	Y6	Z6	X7	Y7	Z7	X8	Y8	Z8	X9	Y9	Z9	X10	Y10	Z10	X11	Y11	Z11	X12	Y12	Z12	X13	Y13	Z13	X14	Y14	Z14	X15	Y15	Z15	X16	Y16	Z16	X17	Y17	Z17	X18	Y18	Z18	X19	Y19	Z19	X20	Y20	Z20	X21	Y21	Z21	X22	Y22	Z22	X23	Y23	Z23	X24	Y24	Z24	X25	Y25	Z25	X26	Y26	Z26	X27	Y27	Z27	X28	Y28	Z28	X29	Y29	Z29	X30	Y30	Z30	X31	Y31	Z31	X32	Y32	Z32	X33	Y33	Z33	X34	Y34	Z34	X35	Y35	Z35	X36	Y36	Z36	X37	Y37	Z37	X38	Y38	Z38	X39	Y39	Z39	X40	Y40	Z40	X41	Y41	Z41	X42	Y42	Z42	X43	Y43	Z43	X44	Y44	Z44	X45	Y45	Z45	X46	Y46	Z46	X47	Y47	Z47	X48	Y48	Z48	X49	Y49	Z49	X50	Y50	Z50	

1	0.000	-1074.64771	-662.85248	1644.36218	-945.55646	-678.51733	1630.28040	-1092.07117	-802.20428	1608.01465	-962.99658	-814.47467	1599.24524	-1039.81799	-826.82587	1446.12061	-1034.51587	-886.82721	1119.54602	-1029.41663	-723.26819	1359.18774	-1037.01685	-696.69586	1182.77087	-972.10962	-919.64288	1281.73682	-1195.05627	-759.27502	1399.72974	-1272.88916	-742.27771	1201.21472	-1289.81958	-729.57379	1089.28552	-1314.53137	-637.65863	972.93414	-1283.01123	-517.49274	922.04559	-1302.68457	-567.56708	875.65381	-1311.59204	-486.63535	835.85193	-872.38330	-781.34418	1394.07715	-791.32263	-869.75250	1211.49792	-775.99023	-888.99689	1090.48352	-754.64972	-907.50653	971.82526	-776.53217	-887.79156	819.19714	-741.02112	-941.48413	838.28271	-734.45630	-929.56622	754.68848	-1141.22888	-718.71191	949.85657	-920.09460	-713.42670	958.22314	-1110.20886	-875.51532	983.87872	-942.08081	-865.37494	981.61584	-1192.14539	-816.97998	640.49573	-1171.40210	-839.90900	477.37027	-1162.88416	-933.49115	234.99435	-1116.47839	-980.18353	68.79921	-1070.47046	-1022.33728	59.37514	-1119.47852	-839.97638	32.50381	-854.86340	-693.28613	635.00635	-882.68872	-639.19403	521.51715	-887.62683	-641.78400	260.26120	-928.77667	-618.82471	74.96014	-980.65363	-646.47919	48.22112	-908.54907	-466.56567	48.65863	-1025.85498	-763.88568	1694.26563																														 
2	0.010	-1074.65100	-654.31061	1643.25452	-945.40399	-670.15729	1628.88269	-1092.36267	-793.31311	1606.45520	-963.13922	-806.04779	1597.49670	-1040.27991	-817.70880	1444.60303	-1034.57410	-877.42596	1117.96533	-1029.66614	-713.99310	1357.85876	-1037.22791	-687.27362	1181.36267	-972.73926	-910.43115	1280.17505	-1195.27295	-749.99628	1398.24133	-1272.86316	-731.52679	1199.89612	-1289.65930	-717.99213	1088.12354	-1313.73767	-622.73071	974.61731	-1281.61035	-500.99329	928.63080	-1300.68445	-549.00385	880.22003	-1309.77625	-466.50854	843.72736	-872.74463	-772.53247	1392.69495	-792.10034	-861.88306	1210.60925	-776.66693	-881.85272	1089.72327	-755.22949	-901.21405	971.25580	-776.81335	-882.10242	818.50952	-741.28271	-936.47986	838.05261	-735.11255	-924.47809	753.93683	-1141.77539	-709.57147	948.35919	-920.49725	-703.08130	956.89587	-1110.22705	-866.30652	982.37927	-942.11859	-855.17365	979.92517	-1192.52722	-809.47577	639.39465	-1172.12256	-833.65698	476.44693	-1163.55530	-930.70319	235.16640	-1117.03345	-979.67352	69.67660	-1071.21277	-1021.90582	60.63917	-1119.68982	-839.90155	32.40275	-855.46326	-685.13141	632.32031	-883.66492	-630.72589	518.92999	-887.44196	-622.72943	258.24478	-928.11890	-591.11407	74.11016	-979.74023	-618.29614	46.80756	-909.84210	-437.61551	51.98611	-1025.92029	-755.44275	1692.73169																														 
3	0.020	-1075.16309	-646.21832	1641.85828	-945.22070	-661.75098	1627.51379	-1092.50549	-784.47589	1604.79736	-963.49316	-797.28363	1595.71008	-1040.61047	-808.46124	1442.97351	-1034.47986	-867.92926	1116.27307	-1029.70740	-704.76172	1356.34290	-1037.52063	-677.70941	1179.89282	-973.25037	-901.10052	1278.47375	-1195.49670	-740.55060	1396.69690	-1272.77881	-720.83929	1198.44739	-1289.10815	-706.37964	1086.79724	-1312.95532	-608.02539	976.35767	-1279.86121	-484.80142	934.99243	-1299.02832	-530.87219	884.68768	-1307.89417	-446.98962	851.63623	-872.95374	-763.58246	1391.26025	-792.67993	-854.06506	1209.64600	-777.19189	-874.55133	1088.90698	-755.69287	-894.57770	970.52936	-776.91003	-876.10822	817.62439	-741.77234	-930.15747	837.64771	-735.46637	-919.84479	753.73969	-1142.34631	-700.47003	946.84857	-921.30487	-692.81189	955.00317	-1109.97449	-857.14612	980.79065	-941.76233	-845.15289	978.34753	-1192.99414	-801.80719	638.35205	-1172.61963	-827.25244	475.48224	-1164.17200	-927.75677	235.48732	-1117.56909	-979.13733	70.83334	-1071.56335	-1021.56952	62.32925	-1119.85303	-839.83978	32.26994	-855.86719	-676.31445	629.78961	-884.28699	-622.42078	516.27521	-887.28131	-604.56018	256.59451	-927.77600	-564.70715	73.87735	-978.92200	-591.64880	45.97361	-911.65637	-409.83282	56.77320	-1025.93323	-747.01764	1691.13257																														 
4	0.030	-1074.53540	-637.17004	1640.83203	-945.09436	-653.21490	1626.15540	-1092.55823	-775.57605	1603.11609	-963.53174	-788.70905	1593.76355	-1040.84131	-799.24188	1441.34534	-1034.26477	-858.36304	1114.57788	-1029.76306	-695.36285	1354.87817	-1037.51953	-668.15253	1178.39734	-973.62262	-891.64252	1276.66565	-1195.47632	-731.09637	1395.15186	-1272.55457	-710.05200	1196.90051	-1288.81812	-694.68805	1085.41553	-1312.04541	-593.54022	978.03748	-1277.92566	-469.07706	941.09521	-1297.49878	-513.17236	889.15204	-1306.07056	-428.04199	859.42999	-873.06073	-754.55981	1389.78870	-793.27533	-845.83832	1208.59082	-777.58020	-866.98608	1087.97009	-756.09033	-887.63104	969.73083	-776.94971	-869.51379	816.75446	-742.21198	-924.03412	837.00024	-735.92657	-913.63379	752.92511	-1142.95154	-691.22522	945.43176	-922.08832	-682.52106	953.21234	-1109.59009	-847.93640	979.14142	-941.24078	-834.95782	976.71130	-1193.55884	-794.15271	637.33258	-1172.80396	-820.53802	474.51978	-1164.73242	-924.82935	235.85425	-1117.94153	-978.56580	72.01308	-1071.95508	-1021.04041	63.99324	-1120.04382	-839.72784	32.18746	-855.97046	-667.08118	627.64142	-884.30975	-613.60638	513.74121	-887.05017	-587.16119	255.14973	-927.85052	-539.99677	74.23417	-978.57465	-566.31458	45.17589	-913.91254	-384.24503	62.52214	-1025.92004	-738.58984	1689.59033																														 
5	0.040	-1074.51245	-628.71490	1639.56934	-944.78857	-644.76526	1624.80139	-1092.58521	-766.64709	1601.27307	-963.57483	-779.97327	1591.85107	-1040.94397	-789.88599	1439.62927	-1033.93030	-848.68970	1112.79578	-1029.71912	-685.83600	1353.36487	-1037.67139	-658.57263	1176.82263	-973.80957	-882.10046	1274.76038	-1195.53186	-721.72107	1393.45007	-1272.25305	-699.38940	1195.30176	-1288.25500	-682.85461	1083.83142	-1310.54077	-578.70514	979.95386	-1275.79993	-453.83478	946.80853	-1296.17834	-495.89951	893.56067	-1304.30151	-409.64359	866.98743	-873.02655	-745.42676	1388.20691	-793.58124	-837.64252	1207.49829	-777.84106	-859.21930	1086.95007	-756.33295	-880.29608	968.76001	-777.06915	-862.36133	815.71759	-742.65417	-917.35614	836.02789	-736.22290	-907.00098	752.04358	-1143.67468	-681.98364	944.01685	-922.89233	-671.81915	951.62805	-1109.01453	-838.61188	977.39227	-940.73560	-824.43604	974.94250	-1194.05127	-786.24847	636.35321	-1173.00696	-814.00024	473.44305	-1165.30115	-921.70691	236.38950	-1118.30103	-977.89130	73.21494	-1072.27161	-1020.52911	65.87693	-1120.17163	-839.63867	32.11100	-855.92023	-657.27100	625.73474	-884.25787	-604.73132	511.32318	-886.88910	-570.71149	253.97520	-928.04413	-517.22919	74.80857	-978.20770	-543.04877	44.63967	-916.66754	-360.35623	68.64159	-1025.80786	-730.20801	1687.83215																														 
6	0.050	-1073.97986	-619.81207	1638.44519	-944.45111	-636.16260	1623.52539	-1092.47607	-757.73645	1599.40588	-963.50873	-771.19702	1589.88416	-1040.90552	-780.52014	1437.94409	-1033.51587	-838.83716	1111.03467	-1029.53174	-676.24121	1351.83264	-1037.74133	-648.85406	1175.22314	-973.79761	-872.49939	1272.82349	-1195.43555	-712.33691	1391.80176	-1271.68713	-688.75586	1193.63403	-1287.41284	-671.29779	1082.42419	-1309.40125	-564.67566	981.50696	-1273.60583	-438.97153	952.19922	-1294.98621	-479.36279	897.90338	-1302.43884	-391.97385	874.22571	-872.94611	-736.10187	1386.65576	-793.72986	-828.99121	1206.31628	-777.93964	-851.09729	1085.84375	-756.50165	-872.44061	967.69763	-777.05536	-854.77203	814.61469	-742.91510	-909.83521	835.07001	-736.44550	-899.74042	751.07062	-1144.33813	-672.45325	942.61902	-923.63196	-661.06879	949.94226	-1108.32068	-829.17468	975.63397	-940.14966	-813.69299	973.21643	-1194.41345	-778.20276	635.39960	-1173.78174	-807.11658	472.67737	-1165.77124	-918.50323	237.01462	-1118.67493	-977.11823	74.64991	-1072.66406	-1019.87054	67.94422	-1120.37109	-839.49707	31.98278	-855.62000	-646.89380	624.10272	-884.14313	-595.94513	508.93268	-886.99225	-555.37469	253.08466	-928.08362	-496.35522	75.44057	-977.77173	-521.58228	44.15551	-919.58148	-338.71625	74.37468	-1025.62036	-721.79413	1686.12097																														 
